<svg width="24" height="25" viewBox="0 0 24 25" fill="none" xmlns="http://www.w3.org/2000/svg">
<path d="M20.1197 19.1206C20.5396 18.7012 20.8256 18.1667 20.9416 17.5846C21.0577 17.0026 20.9985 16.3992 20.7715 15.8509C20.5445 15.3025 20.16 14.8338 19.6666 14.504C19.1732 14.1742 18.593 13.9981 17.9995 13.9981C17.406 13.9981 16.8259 14.1742 16.3325 14.504C15.8391 14.8338 15.4545 15.3025 15.2276 15.8509C15.0006 16.3992 14.9414 17.0026 15.0574 17.5846C15.1734 18.1667 15.4595 18.7012 15.8794 19.1206C15.0907 19.6238 14.5186 20.4036 14.2753 21.3069C14.2241 21.4991 14.2513 21.7038 14.351 21.8759C14.4507 22.048 14.6147 22.1735 14.8069 22.2247C14.8699 22.2413 14.9348 22.2498 15 22.25C15.1654 22.2499 15.3261 22.1952 15.4572 22.0943C15.5883 21.9934 15.6823 21.8521 15.7247 21.6922C15.99 20.6956 16.9256 20 18 20C19.0744 20 20.01 20.6956 20.2753 21.6922C20.2991 21.789 20.3419 21.8802 20.4013 21.9603C20.4607 22.0404 20.5354 22.1078 20.6212 22.1587C20.707 22.2096 20.802 22.2428 20.9008 22.2565C20.9996 22.2702 21.1001 22.264 21.1964 22.2384C21.2928 22.2128 21.3831 22.1682 21.462 22.1073C21.541 22.0464 21.607 21.9703 21.6561 21.8836C21.7053 21.7968 21.7367 21.7011 21.7485 21.6021C21.7603 21.5031 21.7522 21.4027 21.7247 21.3069C21.4812 20.4034 20.9087 19.6236 20.1197 19.1206ZM18 15.5C18.2967 15.5 18.5867 15.588 18.8334 15.7528C19.08 15.9176 19.2723 16.1519 19.3858 16.426C19.4994 16.7001 19.5291 17.0017 19.4712 17.2926C19.4133 17.5836 19.2704 17.8509 19.0607 18.0607C18.8509 18.2704 18.5836 18.4133 18.2926 18.4712C18.0017 18.5291 17.7001 18.4994 17.426 18.3858C17.1519 18.2723 16.9176 18.08 16.7528 17.8334C16.588 17.5867 16.5 17.2967 16.5 17C16.5 16.6022 16.658 16.2207 16.9393 15.9393C17.2206 15.658 17.6022 15.5 18 15.5ZM20.25 7.25001H12.3103L9.75 4.68969C9.61122 4.5498 9.44601 4.43889 9.26398 4.36341C9.08196 4.28792 8.88674 4.24938 8.68969 4.25001H3.75C3.35218 4.25001 2.97064 4.40804 2.68934 4.68935C2.40804 4.97065 2.25 5.35218 2.25 5.75001V19.3072C2.25025 19.6896 2.40221 20.0563 2.67253 20.3268C2.94286 20.5973 3.30946 20.7495 3.69188 20.75H11.3025C11.5014 20.75 11.6922 20.671 11.8328 20.5303C11.9735 20.3897 12.0525 20.1989 12.0525 20C12.0525 19.8011 11.9735 19.6103 11.8328 19.4697C11.6922 19.329 11.5014 19.25 11.3025 19.25H3.75V8.75001H20.25V11.75C20.25 11.9489 20.329 12.1397 20.4697 12.2803C20.6103 12.421 20.8011 12.5 21 12.5C21.1989 12.5 21.3897 12.421 21.5303 12.2803C21.671 12.1397 21.75 11.9489 21.75 11.75V8.75001C21.75 8.35218 21.592 7.97065 21.3107 7.68935C21.0294 7.40804 20.6478 7.25001 20.25 7.25001ZM8.68969 5.75001L10.1897 7.25001H3.75V5.75001H8.68969Z" fill="#838383"/>
</svg>
