<svg width="24" height="25" viewBox="0 0 24 25" fill="none" xmlns="http://www.w3.org/2000/svg">
<g clip-path="url(#clip0_241_7059)">
<path d="M19.5 8.75H4.5C4.08579 8.75 3.75 9.08579 3.75 9.5V20C3.75 20.4142 4.08579 20.75 4.5 20.75H19.5C19.9142 20.75 20.25 20.4142 20.25 20V9.5C20.25 9.08579 19.9142 8.75 19.5 8.75Z" stroke="black" stroke-linecap="round" stroke-linejoin="round"/>
<path d="M12 15.875C12.6213 15.875 13.125 15.3713 13.125 14.75C13.125 14.1287 12.6213 13.625 12 13.625C11.3787 13.625 10.875 14.1287 10.875 14.75C10.875 15.3713 11.3787 15.875 12 15.875Z" fill="black"/>
<path d="M8.25 8.75V5.75C8.25 4.75544 8.64509 3.80161 9.34835 3.09835C10.0516 2.39509 11.0054 2 12 2C12.9946 2 13.9484 2.39509 14.6517 3.09835C15.3549 3.80161 15.75 4.75544 15.75 5.75V8.75" stroke="black" stroke-linecap="round" stroke-linejoin="round"/>
</g>
<defs>
<clipPath id="clip0_241_7059">
<rect width="24" height="24" fill="white" transform="translate(0 0.5)"/>
</clipPath>
</defs>
</svg>
