<svg width="24" height="25" viewBox="0 0 24 25" fill="none" xmlns="http://www.w3.org/2000/svg">
<g clip-path="url(#clip0_157_1106)">
<path d="M14.6897 20.75H4.5C4.30109 20.75 4.11032 20.671 3.96967 20.5303C3.82902 20.3897 3.75 20.1989 3.75 20V5C3.75 4.80109 3.82902 4.61032 3.96967 4.46967C4.11032 4.32902 4.30109 4.25 4.5 4.25H19.5C19.6989 4.25 19.8897 4.32902 20.0303 4.46967C20.171 4.61032 20.25 4.80109 20.25 5V15.1897C20.2499 15.3883 20.171 15.5788 20.0306 15.7194L15.2194 20.5306C15.0788 20.671 14.8883 20.7499 14.6897 20.75Z" fill="white" stroke="#595959" stroke-width="0.8" stroke-linecap="round" stroke-linejoin="round"/>
<path d="M20.1825 15.499H15V20.6815" stroke="#67696D" stroke-width="0.8" stroke-linecap="round" stroke-linejoin="round"/>
<path d="M9 9.5H15" stroke="#ABC2FF" stroke-width="0.8" stroke-linecap="round" stroke-linejoin="round"/>
<path d="M9 12.5H15" stroke="#ABC2FF" stroke-width="0.8" stroke-linecap="round" stroke-linejoin="round"/>
<path d="M9 15.5H12" stroke="#ABC2FF" stroke-width="0.8" stroke-linecap="round" stroke-linejoin="round"/>
</g>
<defs>
<clipPath id="clip0_157_1106">
<rect width="24" height="24" fill="white" transform="translate(0 0.5)"/>
</clipPath>
</defs>
</svg>
