<svg width="32" height="32" viewBox="0 0 32 32" fill="none" xmlns="http://www.w3.org/2000/svg">
<g clip-path="url(#clip0_241_7040)">
<path d="M16 12.25C16 11.4544 16.3161 10.6913 16.8787 10.1287C17.4413 9.56607 18.2044 9.25 19 9.25H25C25.1989 9.25 25.3897 9.32902 25.5303 9.46967C25.671 9.61032 25.75 9.80109 25.75 10V22C25.75 22.1989 25.671 22.3897 25.5303 22.5303C25.3897 22.671 25.1989 22.75 25 22.75H19C18.2044 22.75 17.4413 23.0661 16.8787 23.6287C16.3161 24.1913 16 24.9544 16 25.75" stroke="black" stroke-linecap="round" stroke-linejoin="round"/>
<path d="M6.25 22C6.25 22.1989 6.32902 22.3897 6.46967 22.5303C6.61032 22.671 6.80109 22.75 7 22.75H13C13.7956 22.75 14.5587 23.0661 15.1213 23.6287C15.6839 24.1913 16 24.9544 16 25.75V12.25C16 11.4544 15.6839 10.6913 15.1213 10.1287C14.5587 9.56607 13.7956 9.25 13 9.25H7C6.80109 9.25 6.61032 9.32902 6.46967 9.46967C6.32902 9.61032 6.25 9.80109 6.25 10V22Z" stroke="black" stroke-linecap="round" stroke-linejoin="round"/>
<path d="M19 13H22.75" stroke="black" stroke-linecap="round" stroke-linejoin="round"/>
<path d="M19 16H22.75" stroke="black" stroke-linecap="round" stroke-linejoin="round"/>
<path d="M19 19H22.75" stroke="black" stroke-linecap="round" stroke-linejoin="round"/>
</g>
<defs>
<clipPath id="clip0_241_7040">
<rect width="24" height="24" fill="white" transform="translate(4 4)"/>
</clipPath>
</defs>
</svg>
