<svg width="36" height="36" viewBox="0 0 36 36" fill="none" xmlns="http://www.w3.org/2000/svg">
<circle cx="18" cy="18" r="18" fill="#D0D5DD"/>
<path d="M14.0547 22.3477L18.5547 18.0059C19.041 17.5195 19.416 17.1211 19.6797 16.8105C19.9492 16.4941 20.1543 16.1836 20.2949 15.8789C20.4355 15.5684 20.5059 15.2402 20.5059 14.8945C20.5059 14.5078 20.4092 14.168 20.2158 13.875C20.0283 13.582 19.7676 13.3564 19.4336 13.1982C19.1055 13.04 18.7363 12.9609 18.3262 12.9609C17.8926 12.9609 17.5117 13.0488 17.1836 13.2246C16.8613 13.3945 16.6123 13.6377 16.4365 13.9541C16.2666 14.2705 16.1816 14.6426 16.1816 15.0703H14.002C14.002 14.2793 14.1836 13.585 14.5469 12.9873C14.916 12.3838 15.4287 11.918 16.085 11.5898C16.7471 11.2617 17.5 11.0977 18.3438 11.0977C19.1992 11.0977 19.9551 11.2559 20.6113 11.5723C21.2734 11.8887 21.7861 12.3281 22.1494 12.8906C22.5186 13.4473 22.7031 14.0801 22.7031 14.7891C22.6973 15.2812 22.6006 15.7559 22.4131 16.2129C22.2256 16.6641 21.9033 17.168 21.4463 17.7246C20.9893 18.2812 20.3418 18.9551 19.5039 19.7461L17.2363 21.9961V22.084H22.8965V24H14.0547V22.3477Z" fill="black"/>
</svg>
