<svg width="24" height="25" viewBox="0 0 24 25" fill="none" xmlns="http://www.w3.org/2000/svg">
<path d="M21.3113 7.37846L17.1216 3.18971C16.9823 3.05038 16.8169 2.93986 16.6349 2.86446C16.4529 2.78905 16.2578 2.75024 16.0608 2.75024C15.8638 2.75024 15.6687 2.78905 15.4867 2.86446C15.3047 2.93986 15.1393 3.05038 15 3.18971L3.43969 14.75C3.2998 14.8888 3.18889 15.054 3.11341 15.236C3.03792 15.4181 2.99938 15.6133 3.00001 15.8103V20C3.00001 20.3978 3.15804 20.7794 3.43935 21.0607C3.72065 21.342 4.10218 21.5 4.50001 21.5H20.25C20.4489 21.5 20.6397 21.421 20.7803 21.2803C20.921 21.1397 21 20.9489 21 20.75C21 20.5511 20.921 20.3603 20.7803 20.2197C20.6397 20.079 20.4489 20 20.25 20H10.8113L21.3113 9.50002C21.4506 9.36073 21.5611 9.19535 21.6365 9.01334C21.7119 8.83133 21.7507 8.63625 21.7507 8.43924C21.7507 8.24222 21.7119 8.04714 21.6365 7.86513C21.5611 7.68312 21.4506 7.51775 21.3113 7.37846ZM12.75 7.56033L14.3147 9.12502L6.37501 17.0647L4.81032 15.5L12.75 7.56033ZM4.50001 20V17.3103L7.18969 20H4.50001ZM9.00001 19.6897L7.43626 18.125L15.375 10.1853L16.9397 11.75L9.00001 19.6897ZM18 10.6897L13.8113 6.50002L16.0613 4.25002L20.25 8.43971L18 10.6897Z" fill="#838383"/>
</svg>
