<svg width="36" height="36" viewBox="0 0 36 36" fill="none" xmlns="http://www.w3.org/2000/svg">
<circle cx="18" cy="18" r="18" fill="#D0D5DD"/>
<path d="M17.6777 24.1758C16.7812 24.1758 15.9785 24.0234 15.2695 23.7188C14.5605 23.4141 14.0039 22.9863 13.5996 22.4355C13.1953 21.8848 12.9844 21.2578 12.9668 20.5547H15.2695C15.2871 20.8887 15.4043 21.1846 15.6211 21.4424C15.8379 21.7002 16.125 21.8994 16.4824 22.04C16.8398 22.1748 17.2383 22.2422 17.6777 22.2422C18.1406 22.2422 18.5537 22.1631 18.917 22.0049C19.2861 21.8467 19.5732 21.624 19.7783 21.3369C19.9834 21.0498 20.0859 20.7188 20.0859 20.3438C20.0859 19.9629 19.9805 19.626 19.7695 19.333C19.5586 19.0342 19.2539 18.7998 18.8555 18.6299C18.457 18.46 17.9883 18.375 17.4492 18.375H16.3066V16.6172H17.4492C17.8945 16.6172 18.29 16.541 18.6357 16.3887C18.9873 16.2305 19.2568 16.0107 19.4443 15.7295C19.6377 15.4424 19.7344 15.1172 19.7344 14.7539C19.7344 14.4023 19.6494 14.0918 19.4795 13.8223C19.3154 13.5469 19.0781 13.3359 18.7676 13.1895C18.4629 13.0371 18.1055 12.9609 17.6953 12.9609C17.2969 12.9609 16.9248 13.0342 16.5791 13.1807C16.2393 13.3213 15.9639 13.5234 15.7529 13.7871C15.5479 14.0508 15.4395 14.3555 15.4277 14.7012H13.2305C13.248 14.0039 13.4561 13.3828 13.8545 12.8379C14.2529 12.2871 14.7891 11.8594 15.4629 11.5547C16.1367 11.25 16.8867 11.0977 17.7129 11.0977C18.5508 11.0977 19.292 11.2559 19.9365 11.5723C20.5811 11.8828 21.0791 12.3076 21.4307 12.8467C21.7822 13.3857 21.9551 13.9805 21.9492 14.6309C21.9551 15.0996 21.8613 15.5244 21.668 15.9053C21.4746 16.2803 21.2021 16.5938 20.8506 16.8457C20.499 17.0977 20.0918 17.2734 19.6289 17.373V17.4785C20.2207 17.5547 20.7275 17.7275 21.1494 17.9971C21.5713 18.2666 21.8906 18.6123 22.1074 19.0342C22.3242 19.4561 22.4297 19.9336 22.4238 20.4668C22.4297 21.1758 22.2275 21.8115 21.8174 22.374C21.4131 22.9365 20.8477 23.3789 20.1211 23.7012C19.4004 24.0176 18.5859 24.1758 17.6777 24.1758Z" fill="black"/>
</svg>
