<svg width="24" height="24" viewBox="0 0 24 24" fill="none" xmlns="http://www.w3.org/2000/svg">
<g clip-path="url(#clip0_88_2552)">
<rect width="24" height="24" fill="white"/>
<path d="M18.25 21H4.75C4.55109 21 4.36032 20.921 4.21967 20.7803C4.07902 20.6397 4 20.4489 4 20.25V3.75C4 3.55109 4.07902 3.36032 4.21967 3.21967C4.36032 3.07902 4.55109 3 4.75 3H13.75L19 8.25V20.25C19 20.4489 18.921 20.6397 18.7803 20.7803C18.6397 20.921 18.4489 21 18.25 21Z" stroke="#667085" stroke-width="1.3" stroke-linecap="round" stroke-linejoin="round"/>
<path d="M13.75 3V8.25H19" stroke="#667085" stroke-width="1.3" stroke-linecap="round" stroke-linejoin="round"/>
<path d="M9.25 14.25H13.75" stroke="#667085" stroke-width="1.3" stroke-linecap="round" stroke-linejoin="round"/>
<path d="M11.5 12V16.5" stroke="#667085" stroke-width="1.3" stroke-linecap="round" stroke-linejoin="round"/>
</g>
<defs>
<clipPath id="clip0_88_2552">
<rect width="24" height="24" fill="white"/>
</clipPath>
</defs>
</svg>
