<svg width="24" height="24" viewBox="0 0 24 24" fill="none" xmlns="http://www.w3.org/2000/svg">
<g clip-path="url(#clip0_87_2168)">
<rect width="24" height="24" fill="white"/>
<path d="M10 20.2506V14.2506H14.5V20.2506H20.5V11.2506C20.5001 11.1521 20.4807 11.0545 20.4431 10.9635C20.4055 10.8724 20.3503 10.7897 20.2806 10.72L12.7806 3.21996C12.711 3.15023 12.6283 3.09491 12.5372 3.05717C12.4462 3.01943 12.3486 3 12.25 3C12.1514 3 12.0538 3.01943 11.9628 3.05717C11.8717 3.09491 11.789 3.15023 11.7194 3.21996L4.21938 10.72C4.14975 10.7897 4.09454 10.8724 4.0569 10.9635C4.01926 11.0545 3.99992 11.1521 4 11.2506V20.2506H10Z" fill="current" stroke="#667085" stroke-width="1.2" stroke-linecap="round" stroke-linejoin="round"/>
</g>
<defs>
<clipPath id="clip0_87_2168">
<rect width="24" height="24" fill="white"/>
</clipPath>
</defs>
</svg>
